<svg width="12" height="15" viewBox="0 0 12 15" fill="none" xmlns="http://www.w3.org/2000/svg">
<path d="M11.3334 5.33333H9.33341V4.14C9.33341 2.4 8.06008 0.846668 6.32675 0.680002C4.34008 0.493335 2.66675 2.05333 2.66675 4V5.33333H0.666748V14.6667H11.3334V5.33333ZM6.00008 11.3333C5.26675 11.3333 4.66675 10.7333 4.66675 10C4.66675 9.26667 5.26675 8.66667 6.00008 8.66667C6.73341 8.66667 7.33341 9.26667 7.33341 10C7.33341 10.7333 6.73341 11.3333 6.00008 11.3333ZM4.00008 5.33333V4C4.00008 2.89334 4.89341 2 6.00008 2C7.10675 2 8.00008 2.89334 8.00008 4V5.33333H4.00008Z" fill="#98989E"/>
</svg>
